<svg id="Capa_1" data-name="Capa 1" xmlns="http://www.w3.org/2000/svg" xmlns:xlink="http://www.w3.org/1999/xlink" viewBox="0 0 416 299"><defs><style>.cls-1{fill:none;}.cls-2{fill:#fff;}.cls-3{fill:#96b3f9;}.cls-4{fill:#6984f4;}.cls-5{clip-path:url(#clip-path);}.cls-6{fill:#293463;}</style><clipPath id="clip-path"><path class="cls-1" d="M208,284.07a99.27,99.27,0,0,1-28.74-4.25l-142.45-43a30.61,30.61,0,0,1-21.88-29.46V83A30.69,30.69,0,0,1,38.48,53.05L184.65,17.71a99.45,99.45,0,0,1,46.7,0L377.52,53.05A30.69,30.69,0,0,1,401.07,83V207.32a30.61,30.61,0,0,1-21.88,29.46l-142.45,43A99.27,99.27,0,0,1,208,284.07Z"/></clipPath></defs><title>mauro</title><path class="cls-2" d="M181.14,3.2,35,38.53A45.71,45.71,0,0,0,0,83V207.32a45.71,45.71,0,0,0,32.49,43.75l142.45,43a114.2,114.2,0,0,0,66.12,0l142.45-43A45.71,45.71,0,0,0,416,207.32V83a45.71,45.71,0,0,0-35-44.43L234.86,3.2A114.24,114.24,0,0,0,181.14,3.2Z"/><path class="cls-3" d="M208,284.07a99.27,99.27,0,0,1-28.74-4.25l-142.45-43a30.61,30.61,0,0,1-21.88-29.46V83A30.69,30.69,0,0,1,38.48,53.05L184.65,17.71a99.45,99.45,0,0,1,46.7,0L377.52,53.05A30.69,30.69,0,0,1,401.07,83V207.32a30.61,30.61,0,0,1-21.88,29.46l-142.45,43A99.27,99.27,0,0,1,208,284.07Z"/><circle class="cls-4" cx="135.47" cy="46.36" r="6.4"/><circle class="cls-2" cx="281.6" cy="242.6" r="7.47"/><circle class="cls-4" cx="67.2" cy="134.88" r="4.27"/><circle class="cls-4" cx="129.07" cy="118.88" r="4.27"/><circle class="cls-2" cx="120.53" cy="233" r="4.27"/><circle class="cls-4" cx="305.07" cy="181.81" r="4.27"/><circle class="cls-2" cx="281.6" cy="50.62" r="4.27"/><circle class="cls-2" cx="361.6" cy="150.88" r="4.27"/><circle class="cls-2" cx="78.93" cy="81.55" r="11.73"/><circle class="cls-2" cx="338.13" cy="201.01" r="11.73"/><circle class="cls-4" cx="83.2" cy="191.41" r="18.13"/><circle class="cls-4" cx="345.6" cy="101.82" r="23.47"/><g class="cls-5"><rect class="cls-4" x="148.27" y="208.85" width="24.74" height="77.1"/><rect class="cls-2" x="173.01" y="208.85" width="24.74" height="77.1"/><rect class="cls-4" x="197.75" y="208.85" width="22.97" height="77.1"/><rect class="cls-4" x="243.69" y="208.85" width="22.97" height="77.1"/><rect class="cls-2" x="220.72" y="208.85" width="22.97" height="77.1"/></g><path class="cls-2" d="M207.47,254.33a83.52,83.52,0,0,1-56-21.48V219.11l-.75-.9A73.57,73.57,0,0,1,134,180.74h5.16V159.41h-5A73.23,73.23,0,0,1,145,130.63l.17-.27,33.3-87.2h14V80.49H222.4V43.16h14l26.18,68.55,6.19-1.14v-1.7l.08-.17L275,95.42h11.05l6.21,13.45v31.66l-14.32,7,.74,2.58a72.84,72.84,0,0,1,2.05,9.29H276.8v21.33h4.09a73.64,73.64,0,0,1-16.67,37.47l-.75.9v13.74A83.52,83.52,0,0,1,207.47,254.33Z"/><circle class="cls-6" cx="180.8" cy="70.35" r="4.27"/><circle class="cls-6" cx="171.73" cy="91.15" r="4.27"/><circle class="cls-6" cx="234.13" cy="70.35" r="4.27"/><circle class="cls-6" cx="243.2" cy="91.15" r="4.27"/><circle class="cls-6" cx="171.73" cy="170.08" r="4.27"/><path class="cls-6" d="M215.22,165.23a2.66,2.66,0,0,0-1.89-1.48v-8.07a2.67,2.67,0,1,0-5.33,0v8h-2.13v-8a2.67,2.67,0,1,0-5.34,0v8.07a2.62,2.62,0,0,0-1.88,1.48l-6.4,13.86a2.65,2.65,0,0,0,.17,2.56,2.69,2.69,0,0,0,2.25,1.23H219.2a2.66,2.66,0,0,0,2.42-3.79Zm-16.39,12.31,3.94-8.53h8.32l3.94,8.53Z"/><path class="cls-6" d="M230.93,207.94a8,8,0,0,0-15.84-1.56,8,8,0,0,0-14.18,0,8,8,0,1,0-.75,5.25,8,8,0,0,0,15.68,0,8,8,0,0,0,15.09-3.69Zm-37.86,2.67a2.67,2.67,0,1,1,2.66-2.67A2.68,2.68,0,0,1,193.07,210.61ZM208,212.74a2.67,2.67,0,1,1,2.67-2.67A2.68,2.68,0,0,1,208,212.74Zm12.27-4.8a2.67,2.67,0,1,1,2.66,2.67A2.67,2.67,0,0,1,220.27,207.94Z"/><path class="cls-6" d="M208,220.2a8,8,0,1,0,8,8A8,8,0,0,0,208,220.2Zm0,10.67a2.67,2.67,0,1,1,2.67-2.67A2.68,2.68,0,0,1,208,230.87Z"/><path class="cls-6" d="M189.33,217a8,8,0,1,0,8,8A8,8,0,0,0,189.33,217Zm0,10.66A2.67,2.67,0,1,1,192,225,2.67,2.67,0,0,1,189.33,227.67Z"/><path class="cls-6" d="M226.67,217a8,8,0,1,0,8,8A8,8,0,0,0,226.67,217Zm0,10.66a2.67,2.67,0,1,1,2.66-2.67A2.68,2.68,0,0,1,226.67,227.67Z"/><path class="cls-6" d="M172.76,218.57a59.48,59.48,0,0,1-19.33-23.74,2.67,2.67,0,1,0-4.86,2.19,64.87,64.87,0,0,0,21.05,25.86,2.67,2.67,0,1,0,3.14-4.31Z"/><path class="cls-6" d="M265.09,193.34a2.66,2.66,0,0,0-3.52,1.35,59.53,59.53,0,0,1-19.35,23.85,2.66,2.66,0,0,0,1.57,4.82,2.72,2.72,0,0,0,1.57-.51,64.85,64.85,0,0,0,21.08-26A2.67,2.67,0,0,0,265.09,193.34Z"/><path class="cls-6" d="M228.86,115.4A58.73,58.73,0,0,1,248,127.5a2.68,2.68,0,0,0,1.83.72,2.64,2.64,0,0,0,1.94-.84,2.67,2.67,0,0,0-.11-3.77,64.2,64.2,0,0,0-20.9-13.18,2.67,2.67,0,1,0-1.93,5Z"/><path class="cls-6" d="M155.35,137.15a2.67,2.67,0,0,0,3.72-.64,59.5,59.5,0,0,1,23.58-19.66,2.66,2.66,0,0,0-2.23-4.84,65,65,0,0,0-25.71,21.42A2.68,2.68,0,0,0,155.35,137.15Z"/><path class="cls-6" d="M148.51,151.61a2.77,2.77,0,0,0,.93.17,2.68,2.68,0,0,0,2.5-1.74c.64-1.72,1.36-3.43,2.16-5.09a2.67,2.67,0,0,0-4.8-2.32c-.87,1.81-1.67,3.68-2.36,5.55A2.67,2.67,0,0,0,148.51,151.61Z"/><path class="cls-6" d="M177.56,188l-14.93,4a2.67,2.67,0,0,0-1.2,4.46l10.94,10.93a2.62,2.62,0,0,0,1.88.78,2.72,2.72,0,0,0,.69-.09,2.66,2.66,0,0,0,1.89-1.88l4-14.93a2.67,2.67,0,0,0-3.27-3.27Zm-4.69,12.36-4.4-4.4,6-1.61Z"/><path class="cls-6" d="M268.53,138.5a2.67,2.67,0,0,0-3.57-1.21l-4.34,2.13a2.67,2.67,0,0,0,1.18,5.06,2.75,2.75,0,0,0,1.18-.27l4.33-2.14A2.67,2.67,0,0,0,268.53,138.5Z"/><path class="cls-6" d="M250.57,144.37l-14.88,7.33a2.67,2.67,0,0,0,1.19,5.06,2.61,2.61,0,0,0,1.17-.28l14.87-7.32a2.67,2.67,0,1,0-2.35-4.79Z"/><path class="cls-6" d="M243.22,206c1-1.09,1.94-2.25,2.83-3.42a2.67,2.67,0,1,0-4.26-3.21c-.79,1-1.64,2.08-2.53,3.06a2.67,2.67,0,0,0,2,4.45A2.64,2.64,0,0,0,243.22,206Z"/><path class="cls-6" d="M164.54,134.21c-1.07,2.66.66,5.34,3.44,7.47l-1.9,4a2.66,2.66,0,0,0,1.41,3.62l5.94,2.39a2.64,2.64,0,0,0,3.4-1.32L178.9,146c.51.05,1,.09,1.51.09,2.77,0,5.08-.88,6-3.1h0c1.64-4.08-3.27-8.21-8.53-10.33S166.19,130.14,164.54,134.21Zm16.33,6.58a14.16,14.16,0,0,1-5.8-1.19,14.32,14.32,0,0,1-5-3.16,16.53,16.53,0,0,1,10.8,4.35Z"/><path class="cls-6" d="M202.67,120.48a2.66,2.66,0,0,0,2.66-2.66V100.75a2.67,2.67,0,1,0-5.33,0v17.07A2.66,2.66,0,0,0,202.67,120.48Z"/><path class="cls-6" d="M203.2,123.68a2.68,2.68,0,0,0-2.67,2.67v8.53a2.67,2.67,0,0,0,5.34,0v-8.53A2.68,2.68,0,0,0,203.2,123.68Z"/><path class="cls-6" d="M211.47,115.15a2.66,2.66,0,0,0-2.67,2.67v17.06a2.67,2.67,0,1,0,5.33,0V117.82A2.66,2.66,0,0,0,211.47,115.15Z"/><path class="cls-6" d="M210.93,112a2.66,2.66,0,0,0,2.67-2.67v-8.53a2.67,2.67,0,1,0-5.33,0v8.53A2.66,2.66,0,0,0,210.93,112Z"/><path class="cls-6" d="M295.43,108.38a.57.57,0,0,1,0-.13,2.91,2.91,0,0,0-.19-.59,0,0,0,0,0,0,0l-6.4-13.86a2.65,2.65,0,0,0-2.42-1.55H274.67a2.65,2.65,0,0,0-2.42,1.55l-6.4,13.86a0,0,0,0,0,0,0,2.39,2.39,0,0,0-.19.59.57.57,0,0,0,0,.13,2.21,2.21,0,0,0,0,.37v1.82l-26.31-68.9A2.66,2.66,0,0,0,236.8,40H221.87a2.66,2.66,0,0,0-2.67,2.66V77.29H195.73V42.62A2.66,2.66,0,0,0,193.07,40H178.13a2.68,2.68,0,0,0-2.49,1.71l-33.31,87.24a77,77,0,0,0-11.4,30.66,2.67,2.67,0,0,0,2.64,3H136v14.93h-2.56a2.67,2.67,0,0,0-2.65,3,76.68,76.68,0,0,0,17.48,39.72v12.82a2.67,2.67,0,0,0,.87,2,86.93,86.93,0,0,0,116.65,0,2.65,2.65,0,0,0,.88-2V220.27a76.75,76.75,0,0,0,17.47-39.72,2.63,2.63,0,0,0-.64-2.1,2.67,2.67,0,0,0-2-.91H280V162.61h1.36a2.66,2.66,0,0,0,2.64-3,76,76,0,0,0-2.23-10.34l12.14-5.94a2.63,2.63,0,0,0,1.16-1.15s.05-.11.08-.17a2.36,2.36,0,0,0,.12-.28,2.51,2.51,0,0,0,.2-.94v-32A2.21,2.21,0,0,0,295.43,108.38ZM276.37,97.55h8.32l3.94,8.53h-16.2Zm-51.84-6.93V45.29H235l26.87,70.35a77.48,77.48,0,0,0-12.41-10l-.23-.15c-.64-.41-1.29-.81-1.94-1.2l-.67-.4c-.62-.36-1.23-.72-1.85-1.06l-.72-.38c-1-.54-2-1.07-3.07-1.56l-1.33-.64-1.41-.62L236.64,99l-1.3-.52-2-.74-.91-.32c-1-.33-1.94-.64-2.92-.93l-.94-.27-2.2-.59-1-.25-.79-.19Zm0,10h0l.06,0c1,.24,2,.5,2.95.79l.79.24c.74.23,1.47.45,2.2.7l.86.31c.71.25,1.42.5,2.12.78l.79.31c.74.3,1.48.61,2.21.93l.61.28c.84.38,1.67.77,2.49,1.18l.27.13a72.32,72.32,0,0,1,22.69,18l-38.07,18.75Zm-28.8-18H219.2V88H195.73Zm0,14.73V93.28H219.2v51.09a28.18,28.18,0,0,0-23.47,0Zm11.74,49.8a22.93,22.93,0,1,1-22.94,22.93A22.93,22.93,0,0,1,207.47,147.15ZM180,45.29H190.4v49.9l-.4.1-1.41.34-1.24.32-1.83.52-.64.19a77.29,77.29,0,0,0-31.76,18.93Zm-33.16,86.53a1.27,1.27,0,0,0,.1-.12,72.47,72.47,0,0,1,39.52-29.94l.23-.07c1-.31,2.09-.6,3.14-.87l.31-.08.29-.06v46.87a28.12,28.12,0,0,0-7,7.79l-.09.14c-.19.31-.37.63-.54,1l-.21.38c-.09.15-.18.31-.26.47H136.71A71.81,71.81,0,0,1,146.81,131.82Zm33.4,45.72H149.87V162.61h30.34a28.09,28.09,0,0,0,0,14.93Zm-35.68-14.93v14.93h-3.2V162.61Zm116.8,69.28a81.58,81.58,0,0,1-107.73,0V226a77.14,77.14,0,0,0,107.73,0ZM207.47,242.6a72.12,72.12,0,0,1-70.94-59.72h45.73l.22.38c.13.25.27.5.41.75.34.6.69,1.18,1.07,1.75l.08.12c.23.34.47.67.72,1a2.43,2.43,0,0,0,.14.2,28.43,28.43,0,0,0,5.65,5.63h0c.33.25.67.49,1,.73l.27.18c.56.37,1.14.72,1.72,1.05l.47.27.78.4.8.38.67.31c.49.21,1,.41,1.48.59l.33.11c.44.16.89.3,1.35.44l.48.14c.47.13.95.24,1.43.35a2.3,2.3,0,0,0,.28.06c.57.13,1.15.23,1.74.31l.39.05c.46.06.94.11,1.41.15l.48,0c.6,0,1.19.06,1.8.06s1.2,0,1.79-.06l.48,0c.48,0,.95-.09,1.42-.15l.38-.05c.59-.08,1.17-.18,1.75-.31a2.61,2.61,0,0,0,.27-.06c.48-.1,1-.22,1.43-.36l.48-.13c.46-.14.91-.28,1.36-.44l.32-.11c.5-.18,1-.38,1.48-.59l.67-.31q.4-.18.81-.39c.26-.12.52-.25.77-.39l.49-.28c.58-.33,1.14-.67,1.69-1l.29-.18c.34-.24.68-.48,1-.73l0,0a28.07,28.07,0,0,0,5.64-5.62l.15-.2c.24-.33.48-.66.71-1l.08-.12c.38-.57.74-1.15,1.08-1.75l.41-.75.21-.38h16.82a43.77,43.77,0,0,1-2.1,6.61,2.66,2.66,0,0,0,1.46,3.47,2.56,2.56,0,0,0,1,.2,2.67,2.67,0,0,0,2.47-1.65,49.08,49.08,0,0,0,2.62-8.63H278.4A72.11,72.11,0,0,1,207.47,242.6Zm37.74-75.47,9.24-4.52h11.68v14.93H234.72a27.76,27.76,0,0,0,1-5.74l2.25-1.1a4.26,4.26,0,1,0,7.28-3.57Zm23.59-9.85h-3.08L277,151.77c.49,1.83.91,3.66,1.26,5.51H268.8Zm5.87,5.33v14.93h-3.2V162.61Zm-39.2,3.54c0-.07,0-.14,0-.21-.1-.63-.21-1.26-.35-1.88-.06-.3-.13-.59-.2-.88-.13-.51-.27-1-.43-1.52s-.27-.83-.41-1.23l-.09-.24a27.93,27.93,0,0,0-7.39-10.93l-.13-.12c-.19-.18-.37-.36-.57-.53l42.21-20.79h0l19.59,12.78Zm54.66-30.33-19.2-12.52V111.42h19.2Z"/></svg>