<?xml version="1.0" encoding="utf-8"?>
<!-- Generator: Adobe Illustrator 21.1.0, SVG Export Plug-In . SVG Version: 6.00 Build 0)  -->
<svg version="1.1" id="Layer_1" xmlns="http://www.w3.org/2000/svg" xmlns:xlink="http://www.w3.org/1999/xlink" x="0px" y="0px"
	 viewBox="0 0 128 128" style="enable-background:new 0 0 128 128;" xml:space="preserve">
<style type="text/css">
	.st0{fill:url(#SVGID_1_);}
</style>
<linearGradient id="SVGID_1_" gradientUnits="userSpaceOnUse" x1="64" y1="1.2" x2="64" y2="129.2" gradientTransform="matrix(1 0 0 -1 0 129.2)">
	<stop  offset="0" style="stop-color:#4A5D99"/>
	<stop  offset="1" style="stop-color:#5264AE"/>
</linearGradient>
<path class="st0" d="M79,52.9c0,2.9-1,5.1-2.9,6.6c-1.9,1.5-4.8,2.2-8.6,2.2h-4.1V44.4h5.7c3.4,0,5.9,0.7,7.5,2.1
	C78.3,47.8,79,49.9,79,52.9z M128,10.7v106.7c0,5.9-4.8,10.7-10.7,10.7H10.7C4.8,128,0,123.2,0,117.3V10.7C0,4.8,4.8,0,10.7,0h106.7
	C123.2,0,128,4.8,128,10.7z M42.5,81.4H30v12.5h12.5V81.4z M91.6,52.5c0-6.1-1.8-10.7-5.5-13.8c-3.7-3.1-9.2-4.6-16.2-4.6H51.1v58.7
	h12.5V72h5.3c7.3,0,12.9-1.7,16.9-5C89.7,63.6,91.6,58.8,91.6,52.5z"/>
</svg>
